<svg width="499.99999999999994" height="450.00000000000006" xmlns="http://www.w3.org/2000/svg">
 <!-- Created with Method Draw - http://github.com/duopixel/Method-Draw/ -->

 <g id="Layer_1">
  <title>Layer 1</title>
  <line stroke="#ffffff" fill="none" stroke-width="null" stroke-dasharray="null" opacity="undefined" x1="30.16684" y1="359.33351" x2="138.83355" y2="359.33351" id="svg_2" stroke-linejoin="null" stroke-linecap="null"/>
  <line fill="none" stroke="#ffffff" stroke-width="null" stroke-dasharray="null" opacity="undefined" x1="139.1669" y1="359.33351" x2="138.1669" y2="353.33351" id="svg_3" stroke-linejoin="null" stroke-linecap="null"/>
  <line fill="none" stroke="#ffffff" stroke-width="null" stroke-dasharray="null" opacity="undefined" x1="138.16687" y1="352.66684" x2="145.16687" y2="358.66684" id="svg_4" stroke-linejoin="null" stroke-linecap="null"/>
  <line stroke="#ffffff" transform="rotate(-44.35203552246094 146.83404541015625,355.33447265625) " fill="none" stroke-width="null" stroke-dasharray="null" opacity="undefined" x1="143.68886" y1="356.23727" x2="149.97921" y2="354.43166" id="svg_5" stroke-linejoin="null" stroke-linecap="null"/>
  <line stroke="#ffffff" fill="none" stroke-width="null" stroke-dasharray="null" opacity="undefined" x1="148.16746" y1="353.33445" x2="149.16746" y2="358.33445" id="svg_6" stroke-linejoin="null" stroke-linecap="null"/>
  <line fill="none" stroke-width="null" stroke-dasharray="null" opacity="undefined" x1="149.16748" y1="359.00115" x2="397.16747" y2="359.00115" id="svg_8" stroke-linejoin="null" stroke-linecap="null" stroke="#ffffff"/>
  <line fill="none" stroke="#ffffff" stroke-width="null" stroke-dasharray="null" stroke-opacity="null" fill-opacity="null" opacity="undefined" x1="397.50091" y1="359.66786" x2="399.50091" y2="353.66786" id="svg_9" stroke-linejoin="null" stroke-linecap="null"/>
  <line transform="rotate(-14.227311134338379 400.50091552734324,356.1678771972654) " stroke="#ffffff" fill="none" stroke-width="null" stroke-dasharray="null" stroke-opacity="null" fill-opacity="null" opacity="undefined" x1="400.5009" y1="351.66787" x2="400.5009" y2="360.66787" id="svg_10" stroke-linejoin="null" stroke-linecap="null"/>
  <line stroke="#ffffff" fill="none" stroke-width="null" stroke-dasharray="null" stroke-opacity="null" fill-opacity="null" opacity="undefined" x1="402.16758" y1="359.66787" x2="407.16758" y2="351.66787" id="svg_11" stroke-linejoin="null" stroke-linecap="null"/>
  <line fill="none" stroke="#ffffff" stroke-width="null" stroke-dasharray="null" stroke-opacity="null" fill-opacity="null" opacity="undefined" x1="407.16758" y1="352.0012" x2="408.16758" y2="360.0012" id="svg_12" stroke-linejoin="null" stroke-linecap="null"/>
  <line transform="rotate(-17.782550811767578 410.16760253906233,356.1678771972656) " fill="none" stroke="#ffffff" stroke-width="null" stroke-dasharray="null" stroke-opacity="null" fill-opacity="null" opacity="undefined" x1="407.16758" y1="358.66787" x2="413.16758" y2="353.66787" id="svg_13" stroke-linejoin="null" stroke-linecap="null"/>
  <line fill="none" stroke="#ffffff" stroke-width="null" stroke-dasharray="null" stroke-opacity="null" fill-opacity="null" opacity="undefined" x1="412.50092" y1="352.0012" x2="414.50092" y2="360.0012" id="svg_14" stroke-linejoin="null" stroke-linecap="null"/>
  <line stroke="#ffffff" fill="none" stroke-width="null" stroke-dasharray="null" stroke-opacity="null" fill-opacity="null" opacity="undefined" x1="414.50071" y1="359.00098" x2="476.16759" y2="357.00098" id="svg_15" stroke-linejoin="null" stroke-linecap="null"/>
  <path fill="none" stroke-width="null" stroke-dasharray="null" stroke-opacity="null" fill-opacity="null" opacity="undefined" d="m96.44231,70.48052c-10.07099,0 -18.71534,6.62538 -22.9466,16.19005c-1.68994,-1.19685 -3.55395,-1.92155 -5.54328,-1.92155c-6.0158,0 -11.02181,6.13919 -12.56906,14.47293c-2.64096,-1.32422 -5.71167,-2.12597 -8.99171,-2.12597c-9.84015,0 -17.82228,6.82985 -17.82228,15.24973c0,7.60036 6.54641,13.84856 15.05065,15.00442c-0.38115,0.82037 -0.6768,1.63277 -0.6768,2.49392c0,8.06158 17.41042,14.63645 38.86741,14.63645c21.45698,0 38.86743,-6.57488 38.86741,-14.63645c0,-0.54241 -0.26539,-1.02647 -0.41897,-1.55359c0.93982,0.29649 1.87037,0.61326 2.90055,0.61326c5.74007,0.00002 10.40976,-4.94771 10.40976,-11.03868c0,-6.09097 -4.66969,-11.03867 -10.40976,-11.03867c-0.70343,0 -1.30157,0.30823 -1.96593,0.44973c0.58092,-2.43548 0.96685,-4.92056 0.96685,-7.56354c0,-16.12314 -11.50469,-29.23204 -25.71823,-29.23204l-0.00001,-0.00001l0,0.00001z" id="svg_21" stroke="#ffffff"/>
 </g>
</svg>