<svg width="499.99999999999994" height="450.00000000000006" xmlns="http://www.w3.org/2000/svg">
 <!-- Created with Method Draw - http://github.com/duopixel/Method-Draw/ -->

 <g id="Layer_1">
  <title>Layer 1</title>
  <line stroke="#ffffff" fill="none" stroke-width="null" stroke-dasharray="null" opacity="undefined" x1="30.16684" y1="359.33351" x2="138.83355" y2="359.33351" id="svg_2" stroke-linejoin="null" stroke-linecap="null"/>
  <line fill="none" stroke="#ffffff" stroke-width="null" stroke-dasharray="null" opacity="undefined" x1="139.1669" y1="359.33351" x2="138.1669" y2="353.33351" id="svg_3" stroke-linejoin="null" stroke-linecap="null"/>
  <line fill="none" stroke="#ffffff" stroke-width="null" stroke-dasharray="null" opacity="undefined" x1="138.16687" y1="352.66684" x2="145.16687" y2="358.66684" id="svg_4" stroke-linejoin="null" stroke-linecap="null"/>
  <line stroke="#ffffff" transform="rotate(-44.35203552246094 146.83404541015625,355.33447265625) " fill="none" stroke-width="null" stroke-dasharray="null" opacity="undefined" x1="143.68886" y1="356.23727" x2="149.97921" y2="354.43166" id="svg_5" stroke-linejoin="null" stroke-linecap="null"/>
  <line stroke="#ffffff" fill="none" stroke-width="null" stroke-dasharray="null" opacity="undefined" x1="148.16746" y1="353.33445" x2="149.16746" y2="358.33445" id="svg_6" stroke-linejoin="null" stroke-linecap="null"/>
  <line fill="none" stroke-width="null" stroke-dasharray="null" opacity="undefined" x1="149.16748" y1="359.00115" x2="397.16747" y2="359.00115" id="svg_8" stroke-linejoin="null" stroke-linecap="null" stroke="#ffffff"/>
  <line fill="none" stroke="#ffffff" stroke-width="null" stroke-dasharray="null" stroke-opacity="null" fill-opacity="null" opacity="undefined" x1="397.50091" y1="359.66786" x2="399.50091" y2="353.66786" id="svg_9" stroke-linejoin="null" stroke-linecap="null"/>
  <line transform="rotate(-14.227311134338379 400.50091552734324,356.1678771972654) " stroke="#ffffff" fill="none" stroke-width="null" stroke-dasharray="null" stroke-opacity="null" fill-opacity="null" opacity="undefined" x1="400.5009" y1="351.66787" x2="400.5009" y2="360.66787" id="svg_10" stroke-linejoin="null" stroke-linecap="null"/>
  <line stroke="#ffffff" fill="none" stroke-width="null" stroke-dasharray="null" stroke-opacity="null" fill-opacity="null" opacity="undefined" x1="402.16758" y1="359.66787" x2="407.16758" y2="351.66787" id="svg_11" stroke-linejoin="null" stroke-linecap="null"/>
  <line fill="none" stroke="#ffffff" stroke-width="null" stroke-dasharray="null" stroke-opacity="null" fill-opacity="null" opacity="undefined" x1="407.16758" y1="352.0012" x2="408.16758" y2="360.0012" id="svg_12" stroke-linejoin="null" stroke-linecap="null"/>
  <line transform="rotate(-17.782550811767578 410.16760253906233,356.1678771972656) " fill="none" stroke="#ffffff" stroke-width="null" stroke-dasharray="null" stroke-opacity="null" fill-opacity="null" opacity="undefined" x1="407.16758" y1="358.66787" x2="413.16758" y2="353.66787" id="svg_13" stroke-linejoin="null" stroke-linecap="null"/>
  <line fill="none" stroke="#ffffff" stroke-width="null" stroke-dasharray="null" stroke-opacity="null" fill-opacity="null" opacity="undefined" x1="412.50092" y1="352.0012" x2="414.50092" y2="360.0012" id="svg_14" stroke-linejoin="null" stroke-linecap="null"/>
  <line stroke="#ffffff" fill="none" stroke-width="null" stroke-dasharray="null" stroke-opacity="null" fill-opacity="null" opacity="undefined" x1="414.50071" y1="359.00098" x2="476.16759" y2="357.00098" id="svg_15" stroke-linejoin="null" stroke-linecap="null"/>
  <path fill="none" stroke-width="null" stroke-dasharray="null" stroke-opacity="null" fill-opacity="null" opacity="undefined" d="m96.44231,70.48052c-10.07099,0 -18.71534,6.62538 -22.9466,16.19005c-1.68994,-1.19685 -3.55395,-1.92155 -5.54328,-1.92155c-6.0158,0 -11.02181,6.13919 -12.56906,14.47293c-2.64096,-1.32422 -5.71167,-2.12597 -8.99171,-2.12597c-9.84015,0 -17.82228,6.82985 -17.82228,15.24973c0,7.60036 6.54641,13.84856 15.05065,15.00442c-0.38115,0.82037 -0.6768,1.63277 -0.6768,2.49392c0,8.06158 17.41042,14.63645 38.86741,14.63645c21.45698,0 38.86743,-6.57488 38.86741,-14.63645c0,-0.54241 -0.26539,-1.02647 -0.41897,-1.55359c0.93982,0.29649 1.87037,0.61326 2.90055,0.61326c5.74007,0.00002 10.40976,-4.94771 10.40976,-11.03868c0,-6.09097 -4.66969,-11.03867 -10.40976,-11.03867c-0.70343,0 -1.30157,0.30823 -1.96593,0.44973c0.58092,-2.43548 0.96685,-4.92056 0.96685,-7.56354c0,-16.12314 -11.50469,-29.23204 -25.71823,-29.23204l-0.00001,-0.00001l0,0.00001z" id="svg_21" stroke="#ffffff"/>
  <rect fill="#666666" stroke="#000" opacity="undefined" x="175.5" y="349" width="108" height="18" id="svg_1"/>
  <rect fill="#666666" opacity="undefined" x="218.83333" y="58.33333" width="21" height="292" id="svg_7" stroke="#000"/>
  <path fill="#666666" stroke-width="null" stroke-dasharray="null" stroke-opacity="null" fill-opacity="null" opacity="undefined" d="m269.85712,190.4329l4.9039,-245.03913l16.34633,0l4.9039,245.03913l-26.15412,0l-0.00001,0z" id="svg_16" transform="rotate(-90.20526123046875 282.9341735839844,67.913330078125) " stroke="#000"/>
  <rect fill="#666666" stroke-width="null" stroke-dasharray="null" stroke-opacity="null" fill-opacity="null" opacity="undefined" x="221.79923" y="91.68335" width="65.06819" height="8.96663" id="svg_17" transform="rotate(-37.84257125854492 254.3333129882813,96.1666564941407) " stroke="#000"/>
  <path fill="#ffffff" stroke-width="null" stroke-dasharray="null" opacity="undefined" d="m379.31976,82.97103c4.38835,-4.75678 5.27044,-11.24814 2.88318,-16.70733l-8.80999,9.68588l-8.68449,-1.59187l-2.8776,-7.88702l8.78771,-9.66338c-6.0447,-1.43376 -12.70413,0.29717 -17.07315,5.03512c-4.60768,4.99496 -5.36173,11.91201 -2.50982,17.52402l-22.96404,24.8968c-2.44349,2.64697 -2.14581,6.66161 0.66181,8.9644c2.80762,2.30117 7.06504,2.02304 9.50768,-0.62396l22.93714,-24.87224c6.31391,1.91864 13.51257,0.25725 18.14157,-4.76043l0,0l0,0.00001z" id="svg_32" transform="rotate(-41.42856216430664 354.9579467773437,85.55245971679686) " stroke="#ffffff"/>
  <rect fill="#ffffff" stroke-width="null" stroke-dasharray="null" opacity="undefined" x="346.50039" y="53.33264" width="16.00006" height="7.00003" id="svg_34" stroke="#ffffff"/>
  <path fill="#000000" stroke-width="null" stroke-dasharray="null" stroke-opacity="null" fill-opacity="null" opacity="undefined" d="m386.69599,173.9781c-3.19353,-6.29291 -7.10058,-11.38769 -11.01963,-14.95168c-4.57292,3.65311 -10.14248,5.87758 -16.21439,5.87758c-6.08383,0 -11.66141,-2.22881 -16.22626,-5.87758c-3.91904,3.56399 -7.83009,8.65876 -11.03145,14.95168c-7.43148,14.61034 -8.24877,29.59683 -1.83005,33.48263c2.87457,1.75043 5.88852,0.44576 9.00227,-2.82687c-0.54619,3.31824 -0.86516,6.91478 -0.86516,10.67666c0,16.71308 5.95236,30.25137 13.288,30.25137c4.42144,0 6.61018,-4.9296 7.66264,-12.47718c1.04858,7.54759 3.23731,12.47718 7.64272,12.47718c7.34769,0 13.30011,-13.53829 13.30011,-30.25137c0,-3.76189 -0.31907,-7.35842 -0.87714,-10.67666c3.12165,3.27263 6.13164,4.5773 9.01419,2.82687c6.41477,-3.8858 5.58542,-18.87229 -1.84586,-33.48263l0,0l0.00001,0zm-27.24187,-14.77556c12.34308,0 22.35396,-10.92019 22.35396,-24.39107s-10.01088,-24.3911 -22.35396,-24.3911c-12.34728,0 -22.36606,10.92236 -22.36606,24.3911s10.01879,24.39107 22.36606,24.39107z" id="svg_37" transform="rotate(9.334630012512207 359.4537963867189,177.99113464355466) " stroke="#e5e5e5"/>
  <path fill="#000000" stroke-width="null" stroke-dasharray="null" stroke-opacity="null" fill-opacity="null" opacity="undefined" d="m369.79799,127.67077l2.18205,-2.4245l2.31796,2.57549l2.31796,-2.57549l2.18207,2.4245l-2.31796,2.57551l2.31796,2.57551l-2.18207,2.42452l-2.31796,-2.57551l-2.31796,2.57551l-2.18205,-2.42452l2.31794,-2.57551l-2.31794,-2.57551z" id="svg_39" stroke="#e5e5e5"/>
 </g>
</svg>