<svg width="340" height="340" xmlns="http://www.w3.org/2000/svg">
 <!-- Created with Method Draw - http://github.com/duopixel/Method-Draw/ -->

 <g id="Layer_1">
  <title>Layer 1</title>
  <line stroke="#ffffff" fill="none" stroke-width="null" stroke-dasharray="null" opacity="undefined" x1="30.16684" y1="359.33351" x2="138.83355" y2="359.33351" id="svg_2" stroke-linejoin="null" stroke-linecap="null"/>
  <line fill="none" stroke="#ffffff" stroke-width="null" stroke-dasharray="null" opacity="undefined" x1="139.1669" y1="359.33351" x2="138.1669" y2="353.33351" id="svg_3" stroke-linejoin="null" stroke-linecap="null"/>
  <line fill="none" stroke="#ffffff" stroke-width="null" stroke-dasharray="null" opacity="undefined" x1="138.16687" y1="352.66684" x2="145.16687" y2="358.66684" id="svg_4" stroke-linejoin="null" stroke-linecap="null"/>
  <line stroke="#ffffff" transform="rotate(-44.35203552246094 146.83404541015625,355.33447265625) " fill="none" stroke-width="null" stroke-dasharray="null" opacity="undefined" x1="143.68886" y1="356.23727" x2="149.97921" y2="354.43166" id="svg_5" stroke-linejoin="null" stroke-linecap="null"/>
  <line stroke="#ffffff" fill="none" stroke-width="null" stroke-dasharray="null" opacity="undefined" x1="148.16746" y1="353.33445" x2="149.16746" y2="358.33445" id="svg_6" stroke-linejoin="null" stroke-linecap="null"/>
  <line fill="none" stroke-width="null" stroke-dasharray="null" opacity="undefined" x1="149.16748" y1="359.00115" x2="397.16747" y2="359.00115" id="svg_8" stroke-linejoin="null" stroke-linecap="null" stroke="#ffffff"/>
  <line fill="none" stroke="#ffffff" stroke-width="null" stroke-dasharray="null" stroke-opacity="null" fill-opacity="null" opacity="undefined" x1="397.50091" y1="359.66786" x2="399.50091" y2="353.66786" id="svg_9" stroke-linejoin="null" stroke-linecap="null"/>
  <line transform="rotate(-14.227311134338379 400.50091552734324,356.1678771972654) " stroke="#ffffff" fill="none" stroke-width="null" stroke-dasharray="null" stroke-opacity="null" fill-opacity="null" opacity="undefined" x1="400.5009" y1="351.66787" x2="400.5009" y2="360.66787" id="svg_10" stroke-linejoin="null" stroke-linecap="null"/>
  <line stroke="#ffffff" fill="none" stroke-width="null" stroke-dasharray="null" stroke-opacity="null" fill-opacity="null" opacity="undefined" x1="402.16758" y1="359.66787" x2="407.16758" y2="351.66787" id="svg_11" stroke-linejoin="null" stroke-linecap="null"/>
  <line fill="none" stroke="#ffffff" stroke-width="null" stroke-dasharray="null" stroke-opacity="null" fill-opacity="null" opacity="undefined" x1="407.16758" y1="352.0012" x2="408.16758" y2="360.0012" id="svg_12" stroke-linejoin="null" stroke-linecap="null"/>
  <line transform="rotate(-17.782550811767578 410.16760253906233,356.1678771972656) " fill="none" stroke="#ffffff" stroke-width="null" stroke-dasharray="null" stroke-opacity="null" fill-opacity="null" opacity="undefined" x1="407.16758" y1="358.66787" x2="413.16758" y2="353.66787" id="svg_13" stroke-linejoin="null" stroke-linecap="null"/>
  <line fill="none" stroke="#ffffff" stroke-width="null" stroke-dasharray="null" stroke-opacity="null" fill-opacity="null" opacity="undefined" x1="412.50092" y1="352.0012" x2="414.50092" y2="360.0012" id="svg_14" stroke-linejoin="null" stroke-linecap="null"/>
  <line stroke="#ffffff" fill="none" stroke-width="null" stroke-dasharray="null" stroke-opacity="null" fill-opacity="null" opacity="undefined" x1="414.50071" y1="359.00098" x2="476.16759" y2="357.00098" id="svg_15" stroke-linejoin="null" stroke-linecap="null"/>
  <path id="svg_24" d="m32.5,81.33333l59.5,22.66667" opacity="NaN" fill-opacity="null" stroke-opacity="null" stroke-dasharray="null" stroke-width="null" stroke="#000" fill="#666666"/>
  <path stroke="#ffffff" id="svg_29" d="m23.29247,119.93682l0,95.93338l60.97671,0l91.28192,67.13878l0.05426,-230.21095l-91.29549,67.13878l-61.0174,0zm187.31176,-11.03185c-5.33122,-4.7262 -13.89102,-4.7262 -19.19511,0.0243c-5.29053,4.7505 -5.29053,12.44121 0.02713,17.20386l0,-0.0243c11.70698,10.49727 18.92381,24.89457 18.92381,40.89561c0,15.9889 -7.20325,30.33759 -18.89667,40.83486c-5.34479,4.7262 -5.34479,12.41691 -0.02713,17.19171c2.64526,2.36918 6.11802,3.55984 9.59077,3.55984c3.48632,0 6.95908,-1.19066 9.60434,-3.55984c16.57698,-14.82253 26.85959,-35.41613 26.84603,-58.02657c0.01357,-22.65904 -10.30974,-43.27694 -26.87316,-58.09947zm31.13271,-27.87122c-5.33122,-4.7505 -13.89102,-4.7505 -19.16798,0c-5.31766,4.7505 -5.31766,12.45336 0,17.17956c19.6699,17.62909 31.79742,41.87973 31.79742,68.77898c0,26.87495 -12.12751,51.11344 -31.77029,68.75468c-5.31766,4.73835 -5.31766,12.42906 0,17.17956c2.64526,2.36918 6.11802,3.55984 9.60434,3.55984c3.47276,0 6.94551,-1.19066 9.59077,-3.55984c24.52634,-21.97866 39.73321,-52.4256 39.70608,-85.93424c0.01357,-33.53294 -15.19331,-64.00418 -39.76034,-85.95854zm29.55912,-26.47402c-5.33122,-4.7505 -13.90459,-4.7262 -19.18155,0.0243c-5.30409,4.7262 -5.30409,12.42906 0.02713,17.16741l-0.02713,0c27.25299,24.40858 44.06059,57.99012 44.06059,95.24085c0,37.21428 -16.80759,70.80797 -44.03346,95.2287c-5.30409,4.73835 -5.30409,12.42906 0.02713,17.19171c2.6317,2.35703 6.10445,3.53554 9.57721,3.53554s6.95908,-1.19066 9.60434,-3.55984c32.05516,-28.74599 51.96925,-68.56029 51.94211,-112.39611c0.02713,-43.87227 -19.88695,-83.69871 -51.99638,-112.43256z" opacity="undefined" fill-opacity="null" stroke-opacity="null" stroke-dasharray="null" stroke-width="null" fill="#ffffff"/>
 </g>
</svg>